<svg width="25" height="25" viewBox="0 0 25 25" fill="none" xmlns="http://www.w3.org/2000/svg">
<path d="M23.7613 7.36673C23.7613 7.36673 23.5273 5.71223 22.8058 4.98623C21.8923 4.03073 20.8693 4.02473 20.4013 3.96923C17.0458 3.72473 12.0058 3.72473 12.0058 3.72473H11.9968C11.9968 3.72473 6.95832 3.72473 3.60132 3.96923C3.13182 4.02623 2.11032 4.03073 1.19682 4.98623C0.475324 5.71223 0.245824 7.36673 0.245824 7.36673C0.245824 7.36673 0.00732422 9.30773 0.00732422 11.2532V13.0727C0.00732422 15.0137 0.245824 16.9592 0.245824 16.9592C0.245824 16.9592 0.479824 18.6137 1.19682 19.3412C2.11032 20.2967 3.31032 20.2652 3.84582 20.3672C5.76732 20.5502 12.0073 20.6057 12.0073 20.6057C12.0073 20.6057 17.0518 20.5967 20.4073 20.3567C20.8768 20.3012 21.8983 20.2952 22.8118 19.3397C23.5333 18.6137 23.7673 16.9577 23.7673 16.9577C23.7673 16.9577 24.0058 15.0167 24.0058 13.0712V11.2517C24.0013 9.31073 23.7628 7.36523 23.7628 7.36523L23.7613 7.36673ZM9.52032 15.2792V8.53373L16.0033 11.9177L9.52032 15.2792Z" fill="black"/>
</svg>
