<svg width="15" height="16" viewBox="0 0 15 16" fill="none" xmlns="http://www.w3.org/2000/svg">
<path d="M7.5 0.666687C3.35812 0.666687 0 1.71575 0 3.01044V4.88544C0 6.18012 3.35812 7.22919 7.5 7.22919C11.6419 7.22919 15 6.18012 15 4.88544V3.01044C15 1.71575 11.6419 0.666687 7.5 0.666687Z" fill="white"/>
<path d="M7.5 8.63544C3.35812 8.63544 0 7.58637 0 6.29169V9.10419C0 10.3989 3.35812 11.4479 7.5 11.4479C11.6419 11.4479 15 10.3989 15 9.10419V6.29169C15 7.58637 11.6419 8.63544 7.5 8.63544Z" fill="white"/>
<path d="M7.5 12.8542C3.35812 12.8542 0 11.8051 0 10.5104V13.3229C0 14.6176 3.35812 15.6667 7.5 15.6667C11.6419 15.6667 15 14.6176 15 13.3229V10.5104C15 11.8051 11.6419 12.8542 7.5 12.8542Z" fill="white"/>
</svg>
