<svg width="14" height="15" viewBox="0 0 14 15" fill="none" xmlns="http://www.w3.org/2000/svg">
<path d="M9.5457 9.31873C9.23945 9.20935 8.73906 9.20388 8.51758 9.11912C8.36445 9.05896 8.12109 8.99333 8.0418 8.89763C7.9625 8.80193 7.9625 8.11833 7.9625 8.11833C7.9625 8.11833 8.15391 7.93787 8.2332 7.73552C8.3125 7.53591 8.36445 6.98357 8.36445 6.98357C8.36445 6.98357 8.54492 7.06013 8.61602 6.69919C8.67617 6.38748 8.79102 6.22341 8.76094 5.99373C8.72812 5.76404 8.60234 5.81873 8.60234 5.81873C8.60234 5.81873 8.76094 5.5863 8.76094 4.79607C8.76094 3.98123 8.1457 3.18005 6.99453 3.18005C5.84609 3.18005 5.22539 3.98396 5.22539 4.79607C5.22539 5.5863 5.38125 5.81873 5.38125 5.81873C5.38125 5.81873 5.25273 5.76404 5.22266 5.99373C5.18984 6.22341 5.30469 6.38748 5.36758 6.69919C5.43867 7.06287 5.61914 6.98357 5.61914 6.98357C5.61914 6.98357 5.67109 7.53318 5.75039 7.73552C5.82969 7.93787 6.02109 8.11833 6.02109 8.11833C6.02109 8.11833 6.02109 8.80193 5.9418 8.89763C5.8625 8.99333 5.61914 9.05896 5.46602 9.11638C5.24727 9.20115 4.74688 9.21208 4.43789 9.32146C4.13164 9.43083 3.18555 9.92849 3.18555 11.159H10.7953C10.798 9.92576 9.85195 9.4281 9.5457 9.31873Z" fill="white"/>
<path d="M3.82812 7.98711C3.82812 7.98711 4.48164 7.96523 4.74141 7.73281C4.31758 7.09023 4.54727 6.34102 4.45977 5.64102C4.37227 4.94375 3.97578 4.52539 3.18281 4.52539H3.17188C2.40625 4.52539 1.99336 4.94102 1.90586 5.64102C1.81836 6.33828 2.06172 7.17227 1.62695 7.73281C1.88672 7.96797 2.54297 7.95977 2.54297 7.95977C2.54297 7.95977 2.57031 8.35352 2.51562 8.41914C2.46094 8.48477 2.29961 8.54766 2.1875 8.56953C1.94687 8.62148 1.69258 8.69258 1.4793 8.76641C1.26602 8.84023 0.861328 9.23672 0.861328 9.78359H3.05703C3.11719 9.56484 3.53008 9.17383 3.93203 8.96875C4.17813 8.84297 4.42148 8.85117 4.60742 8.82656C4.60742 8.82656 4.71133 8.6625 4.36953 8.59961C4.36953 8.59961 3.89922 8.48203 3.84453 8.41641C3.79258 8.35625 3.82812 7.98711 3.82812 7.98711ZM10.1719 7.98711C10.1719 7.98711 9.51836 7.96523 9.25859 7.73281C9.68242 7.09023 9.45273 6.34102 9.54023 5.64102C9.62773 4.94375 10.0242 4.52539 10.8172 4.52539H10.8281C11.5938 4.52539 12.0066 4.94102 12.0941 5.64102C12.1816 6.33828 11.9383 7.17227 12.373 7.73281C12.1133 7.96797 11.457 7.95977 11.457 7.95977C11.457 7.95977 11.4297 8.35352 11.4844 8.41914C11.5391 8.48477 11.7004 8.54766 11.8125 8.56953C12.0531 8.62148 12.3074 8.69258 12.5207 8.76641C12.734 8.84023 13.1387 9.23672 13.1387 9.78359H10.943C10.8828 9.56484 10.4699 9.17383 10.068 8.96875C9.82188 8.84297 9.57852 8.85117 9.39258 8.82656C9.39258 8.82656 9.28867 8.6625 9.63047 8.59961C9.63047 8.59961 10.1008 8.48203 10.1555 8.41641C10.2074 8.35625 10.1719 7.98711 10.1719 7.98711Z" fill="white"/>
</svg>
