<svg width="15" height="15" viewBox="0 0 15 15" fill="none" xmlns="http://www.w3.org/2000/svg">
<path d="M9.64969 10.9753L6.5625 7.88812V3.75H8.4375V7.11187L10.9753 9.64969L9.64969 10.9753ZM7.5 0C3.35812 0 0 3.35812 0 7.5C0 11.6419 3.35812 15 7.5 15C11.6419 15 15 11.6419 15 7.5C15 3.35812 11.6419 0 7.5 0ZM7.5 13.125C4.39313 13.125 1.875 10.6069 1.875 7.5C1.875 4.39313 4.39313 1.875 7.5 1.875C10.6069 1.875 13.125 4.39313 13.125 7.5C13.125 10.6069 10.6069 13.125 7.5 13.125Z" fill="white"/>
</svg>
