<svg width="17" height="17" viewBox="0 0 17 17" fill="none" xmlns="http://www.w3.org/2000/svg">
<path d="M7.13717 7.79167C7.56217 7.79167 7.90642 8.11042 7.89862 8.5C7.89862 8.88958 7.56288 9.20833 7.13717 9.20833C6.71925 9.20833 6.375 8.88958 6.375 8.5C6.375 8.11042 6.71146 7.79167 7.13717 7.79167ZM9.86283 7.79167C10.2885 7.79167 10.625 8.11042 10.625 8.5C10.625 8.88958 10.2885 9.20833 9.86283 9.20833C9.44492 9.20833 9.10137 8.88958 9.10137 8.5C9.10137 8.11042 9.43712 7.79167 9.86283 7.79167ZM13.3811 1.41667C14.2049 1.41667 14.875 2.10092 14.875 2.94879V16.2917L13.3089 14.8785L12.427 14.0455L11.4941 13.1601L11.8809 14.5364H3.61888C2.79508 14.5364 2.125 13.8522 2.125 13.0043V2.94879C2.125 2.10092 2.79508 1.41667 3.61888 1.41667H13.3804H13.3811ZM10.569 11.13C12.1791 11.0783 12.7989 9.99954 12.7989 9.99954C12.7989 7.60467 11.7491 5.66313 11.7491 5.66313C10.7008 4.86058 9.70204 4.88254 9.70204 4.88254L9.60004 5.00154C10.8389 5.38829 11.4141 5.94646 11.4141 5.94646C10.7377 5.56537 9.9922 5.32266 9.22108 5.23246C8.73194 5.17721 8.23787 5.18197 7.74987 5.24663C7.70596 5.24663 7.66912 5.25442 7.62592 5.2615C7.37092 5.28417 6.75112 5.3805 5.97196 5.73042C5.70279 5.8565 5.542 5.94646 5.542 5.94646C5.542 5.94646 6.14692 5.35854 7.45804 4.97179L7.38508 4.88254C7.38508 4.88254 6.38704 4.86058 5.338 5.66383C5.338 5.66383 4.28896 7.60467 4.28896 9.99954C4.28896 9.99954 4.90096 11.0776 6.511 11.13C6.511 11.13 6.78017 10.7957 6.99975 10.5131C6.07396 10.2298 5.72475 9.63475 5.72475 9.63475C5.72475 9.63475 5.797 9.68717 5.92804 9.76154C5.93513 9.76863 5.94221 9.77642 5.95708 9.7835C5.97904 9.79908 6.001 9.80617 6.02296 9.82104C6.205 9.92517 6.38704 10.0066 6.55421 10.0739C6.85313 10.1929 7.21012 10.3119 7.62592 10.3941C8.24877 10.5162 8.88917 10.5186 9.51292 10.4012C9.87623 10.3363 10.2307 10.2291 10.569 10.0817C10.824 9.98467 11.1081 9.843 11.407 9.64254C11.407 9.64254 11.0429 10.2524 10.0881 10.528C10.307 10.8106 10.5697 11.13 10.5697 11.13H10.569Z" fill="white"/>
</svg>
