<svg width="15" height="15" viewBox="0 0 15 15" fill="none" xmlns="http://www.w3.org/2000/svg">
<path d="M13.125 5.9375V7.8125C13.125 9.36562 10.6062 10.625 7.5 10.625C4.39375 10.625 1.875 9.36562 1.875 7.8125V5.9375C1.875 7.49062 4.39375 8.75 7.5 8.75C10.6062 8.75 13.125 7.49062 13.125 5.9375ZM1.875 9.0625C1.875 10.6156 4.39375 11.875 7.5 11.875C10.6062 11.875 13.125 10.6156 13.125 9.0625V10.9375C13.125 12.4906 10.6062 13.75 7.5 13.75C4.39375 13.75 1.875 12.4906 1.875 10.9375V9.0625ZM7.5 7.5C4.39375 7.5 1.875 6.24062 1.875 4.6875C1.875 3.13438 4.39375 1.875 7.5 1.875C10.6062 1.875 13.125 3.13438 13.125 4.6875C13.125 6.24062 10.6062 7.5 7.5 7.5Z" fill="white"/>
</svg>
