<svg width="20" height="19" viewBox="0 0 20 19" fill="none" xmlns="http://www.w3.org/2000/svg">
<path d="M6.79821 6.81725H9.1588V9.07617H6.79821V6.81725ZM10.3391 6.81725H12.6997V9.07617H10.3391V6.81725ZM13.88 6.81725H16.2406V9.07617H13.88V6.81725ZM3.25732 13.594H5.61791V15.853H3.25732V13.594ZM6.79821 13.594H9.1588V15.853H6.79821V13.594ZM10.3391 13.594H12.6997V15.853H10.3391V13.594ZM6.79821 10.2056H9.1588V12.4646H6.79821V10.2056ZM10.3391 10.2056H12.6997V12.4646H10.3391V10.2056ZM13.88 10.2056H16.2406V12.4646H13.88V10.2056ZM3.25732 10.2056H5.61791V12.4646H3.25732V10.2056ZM16.2406 0.0404663V1.16993H13.88V0.0404663H5.61791V1.16993H3.25732V0.0404663H0.896729V18.1119H18.6012V0.0404663H16.2406ZM17.4209 16.9824H2.07702V4.55832H17.4209V16.9824Z" fill="white"/>
</svg>
