<svg width="25" height="25" viewBox="0 0 25 25" fill="none" xmlns="http://www.w3.org/2000/svg">
<path d="M25.0001 5.47371C24.1181 5.86821 23.1671 6.13071 22.1741 6.24771C23.1911 5.63871 23.9696 4.67271 24.3401 3.52371C23.3891 4.08621 22.3331 4.49871 21.2141 4.71921C20.3141 3.76221 19.0346 3.16821 17.6186 3.16821C14.8991 3.16821 12.6971 5.37171 12.6971 8.08971C12.6971 8.47371 12.7391 8.84871 12.8231 9.21021C8.73114 9.00321 5.10264 7.04421 2.67414 4.06371C2.25264 4.78971 2.00814 5.63871 2.00814 6.53871C2.00814 8.24571 2.87514 9.75471 4.19664 10.6352C3.38964 10.6112 2.63064 10.3862 1.96464 10.0217C1.96464 10.0412 1.96464 10.0637 1.96464 10.0832C1.96464 12.4697 3.66114 14.4617 5.91564 14.9117C5.50314 15.0242 5.06664 15.0857 4.61664 15.0857C4.29864 15.0857 3.99264 15.0527 3.68814 14.9972C4.31664 16.9517 6.13464 18.3767 8.28714 18.4187C6.59964 19.7402 4.48014 20.5277 2.17014 20.5277C1.77114 20.5277 1.38264 20.5037 0.994141 20.4572C3.17814 21.8582 5.76564 22.6697 8.54514 22.6697C17.6006 22.6697 22.5566 15.1652 22.5566 8.65821C22.5566 8.44221 22.5521 8.23221 22.5431 8.02071C23.5046 7.33221 24.3386 6.46371 24.9986 5.47521L25.0001 5.47371Z" fill="black"/>
</svg>
