<svg width="32" height="31" viewBox="0 0 32 31" fill="none" xmlns="http://www.w3.org/2000/svg">
<path d="M28.709 7.25366C27.7478 7.67881 26.7285 7.95802 25.6849 8.08207C26.7849 7.42417 27.6082 6.38875 28.0014 5.16878C26.969 5.78317 25.8372 6.21374 24.6575 6.44665C23.8652 5.59882 22.8148 5.03654 21.6699 4.84722C20.525 4.6579 19.3496 4.85214 18.3265 5.39975C17.3033 5.94736 16.4898 6.81765 16.0123 7.87533C15.5348 8.93302 15.4201 10.1188 15.686 11.2484C13.5925 11.1435 11.5444 10.5994 9.67476 9.6516C7.80512 8.70376 6.15571 7.37332 4.83361 5.74666C4.36564 6.55045 4.11972 7.46419 4.12103 8.39429C4.12103 10.2198 5.05016 11.8326 6.46274 12.7768C5.62678 12.7505 4.80923 12.5247 4.07823 12.1184V12.1838C4.07848 13.3996 4.49919 14.5779 5.26903 15.519C6.03887 16.46 7.11046 17.1058 8.30211 17.3469C7.52609 17.5572 6.7124 17.5882 5.92263 17.4376C6.25862 18.4841 6.91346 19.3993 7.79549 20.0551C8.67751 20.7109 9.74255 21.0745 10.8415 21.0949C9.74929 21.9527 8.49873 22.5868 7.16132 22.9609C5.82391 23.3351 4.42586 23.442 3.04712 23.2755C5.45391 24.8233 8.25565 25.645 11.1172 25.6423C20.8025 25.6423 26.0991 17.6189 26.0991 10.6605C26.0991 10.4338 26.0928 10.2047 26.0827 9.98061C27.1137 9.23551 28.0034 8.31249 28.7102 7.25492L28.709 7.25366Z" fill="black"/>
</svg>
