<svg width="17" height="17" viewBox="0 0 17 17" fill="none" xmlns="http://www.w3.org/2000/svg">
<path d="M7.13717 7.79169C7.56217 7.79169 7.90642 8.11044 7.89862 8.50002C7.89862 8.8896 7.56288 9.20835 7.13717 9.20835C6.71925 9.20835 6.375 8.8896 6.375 8.50002C6.375 8.11044 6.71146 7.79169 7.13717 7.79169ZM9.86283 7.79169C10.2885 7.79169 10.625 8.11044 10.625 8.50002C10.625 8.8896 10.2885 9.20835 9.86283 9.20835C9.44492 9.20835 9.10137 8.8896 9.10137 8.50002C9.10137 8.11044 9.43712 7.79169 9.86283 7.79169ZM13.3811 1.41669C14.2049 1.41669 14.875 2.10094 14.875 2.94881V16.2917L13.3089 14.8786L12.427 14.0456L11.4941 13.1601L11.8809 14.5364H3.61888C2.79508 14.5364 2.125 13.8522 2.125 13.0043V2.94881C2.125 2.10094 2.79508 1.41669 3.61888 1.41669H13.3804H13.3811ZM10.569 11.1301C12.1791 11.0784 12.7989 9.99956 12.7989 9.99956C12.7989 7.60469 11.7491 5.66315 11.7491 5.66315C10.7008 4.8606 9.70204 4.88256 9.70204 4.88256L9.60004 5.00156C10.8389 5.38831 11.4141 5.94648 11.4141 5.94648C10.7377 5.56539 9.9922 5.32268 9.22108 5.23248C8.73194 5.17723 8.23787 5.18199 7.74987 5.24665C7.70596 5.24665 7.66912 5.25444 7.62592 5.26152C7.37092 5.28419 6.75112 5.38052 5.97196 5.73044C5.70279 5.85652 5.542 5.94648 5.542 5.94648C5.542 5.94648 6.14692 5.35856 7.45804 4.97181L7.38508 4.88256C7.38508 4.88256 6.38704 4.8606 5.338 5.66385C5.338 5.66385 4.28896 7.60469 4.28896 9.99956C4.28896 9.99956 4.90096 11.0776 6.511 11.1301C6.511 11.1301 6.78017 10.7957 6.99975 10.5131C6.07396 10.2298 5.72475 9.63477 5.72475 9.63477C5.72475 9.63477 5.797 9.68719 5.92804 9.76156C5.93513 9.76865 5.94221 9.77644 5.95708 9.78352C5.97904 9.7991 6.001 9.80619 6.02296 9.82106C6.205 9.92519 6.38704 10.0066 6.55421 10.0739C6.85313 10.1929 7.21012 10.3119 7.62592 10.3941C8.24877 10.5162 8.88917 10.5186 9.51292 10.4012C9.87623 10.3363 10.2307 10.2291 10.569 10.0817C10.824 9.98469 11.1081 9.84302 11.407 9.64256C11.407 9.64256 11.0429 10.2524 10.0881 10.528C10.307 10.8106 10.5697 11.1301 10.5697 11.1301H10.569Z" fill="white"/>
</svg>
