<svg width="15" height="16" viewBox="0 0 15 16" fill="none" xmlns="http://www.w3.org/2000/svg">
<path d="M4.6875 6.29169H6.5625V8.16669H4.6875V6.29169ZM7.5 6.29169H9.375V8.16669H7.5V6.29169ZM10.3125 6.29169H12.1875V8.16669H10.3125V6.29169ZM1.875 11.9167H3.75V13.7917H1.875V11.9167ZM4.6875 11.9167H6.5625V13.7917H4.6875V11.9167ZM7.5 11.9167H9.375V13.7917H7.5V11.9167ZM4.6875 9.10419H6.5625V10.9792H4.6875V9.10419ZM7.5 9.10419H9.375V10.9792H7.5V9.10419ZM10.3125 9.10419H12.1875V10.9792H10.3125V9.10419ZM1.875 9.10419H3.75V10.9792H1.875V9.10419ZM12.1875 0.666687V1.60419H10.3125V0.666687H3.75V1.60419H1.875V0.666687H0V15.6667H14.0625V0.666687H12.1875ZM13.125 14.7292H0.9375V4.41669H13.125V14.7292Z" fill="white"/>
</svg>
