<svg width="15" height="16" viewBox="0 0 15 16" fill="none" xmlns="http://www.w3.org/2000/svg">
<path d="M9.64969 11.642L6.5625 8.55481V4.41669H8.4375V7.77856L10.9753 10.3164L9.64969 11.642ZM7.5 0.666687C3.35812 0.666687 0 4.02481 0 8.16669C0 12.3086 3.35812 15.6667 7.5 15.6667C11.6419 15.6667 15 12.3086 15 8.16669C15 4.02481 11.6419 0.666687 7.5 0.666687ZM7.5 13.7917C4.39313 13.7917 1.875 11.2736 1.875 8.16669C1.875 5.05981 4.39313 2.54169 7.5 2.54169C10.6069 2.54169 13.125 5.05981 13.125 8.16669C13.125 11.2736 10.6069 13.7917 7.5 13.7917Z" fill="white"/>
</svg>
