<svg width="20" height="19" viewBox="0 0 20 19" fill="none" xmlns="http://www.w3.org/2000/svg">
<path d="M12.5754 13.4679L8.68871 9.74854V4.76309H11.0493V8.81335L14.2444 11.8708L12.5754 13.4679ZM9.869 0.245239C4.65445 0.245239 0.426636 4.29098 0.426636 9.28095C0.426636 14.2709 4.65445 18.3167 9.869 18.3167C15.0835 18.3167 19.3114 14.2709 19.3114 9.28095C19.3114 4.29098 15.0835 0.245239 9.869 0.245239ZM9.869 16.0577C5.9575 16.0577 2.78723 13.024 2.78723 9.28095C2.78723 5.5379 5.9575 2.50417 9.869 2.50417C13.7805 2.50417 16.9508 5.5379 16.9508 9.28095C16.9508 13.024 13.7805 16.0577 9.869 16.0577Z" fill="white"/>
</svg>
