<svg width="34" height="34" viewBox="0 0 34 34" fill="none" xmlns="http://www.w3.org/2000/svg">
<path d="M30.0274 9.7383C30.6452 12.1472 30.6452 17.1759 30.6452 17.1759C30.6452 17.1759 30.6452 22.2046 30.0274 24.6135C29.6841 25.945 28.6797 26.9926 27.4076 27.3468C25.0974 27.9903 17.1272 27.9903 17.1272 27.9903C17.1272 27.9903 9.16108 27.9903 6.84681 27.3468C5.56936 26.9872 4.56632 25.9409 4.22702 24.6135C3.60925 22.2046 3.60925 17.1759 3.60925 17.1759C3.60925 17.1759 3.60925 12.1472 4.22702 9.7383C4.57038 8.40678 5.57476 7.35914 6.84681 7.00497C9.16108 6.36151 17.1272 6.36151 17.1272 6.36151C17.1272 6.36151 25.0974 6.36151 27.4076 7.00497C28.6851 7.36454 29.6881 8.41083 30.0274 9.7383ZM14.4236 21.9072L22.5344 17.1759L14.4236 12.4446V21.9072Z" fill="black"/>
</svg>
