<svg width="20" height="19" viewBox="0 0 20 19" fill="none" xmlns="http://www.w3.org/2000/svg">
<path d="M16.891 7.39852V9.65745C16.891 11.5286 13.7199 13.0458 9.80919 13.0458C5.89848 13.0458 2.72742 11.5286 2.72742 9.65745V7.39852C2.72742 9.26967 5.89848 10.7869 9.80919 10.7869C13.7199 10.7869 16.891 9.26967 16.891 7.39852ZM2.72742 11.1634C2.72742 13.0345 5.89848 14.5518 9.80919 14.5518C13.7199 14.5518 16.891 13.0345 16.891 11.1634V13.4223C16.891 15.2935 13.7199 16.8107 9.80919 16.8107C5.89848 16.8107 2.72742 15.2935 2.72742 13.4223V11.1634ZM9.80919 9.28096C5.89848 9.28096 2.72742 7.76372 2.72742 5.89257C2.72742 4.02143 5.89848 2.50418 9.80919 2.50418C13.7199 2.50418 16.891 4.02143 16.891 5.89257C16.891 7.76372 13.7199 9.28096 9.80919 9.28096Z" fill="white"/>
</svg>
